<?xml version="1.0" encoding="utf-8"?>
<!-- Generator: Adobe Illustrator 23.0.6, SVG Export Plug-In . SVG Version: 6.00 Build 0)  -->
<svg version="1.1" id="Layer_1" xmlns="http://www.w3.org/2000/svg" xmlns:xlink="http://www.w3.org/1999/xlink" x="0px" y="0px"
	 viewBox="0 0 538 119.88" style="enable-background:new 0 0 538 119.88;" xml:space="preserve">
<style type="text/css">
	.st0{display:none;}
	.st1{display:inline;}
	.st2{fill:#88898A;}
	.st3{fill:#216FA1;}
	.st4{fill:none;}
	.st5{display:none;fill:#216FA1;}
	.st6{font-family:'Forum';}
	.st7{font-size:70.0826px;}
	.st8{letter-spacing:2;}
	.st9{fill:#FFFFFF;stroke:#246FA1;stroke-width:0.5;stroke-miterlimit:10;}
	.st10{fill:#BCBEC0;stroke:#246FA1;stroke-width:0.5;stroke-miterlimit:10;}
	.st11{font-size:54.9819px;}
	.st12{letter-spacing:-11;}
</style>
<g class="st0">
	<g class="st1">
		<path class="st2" d="M16.9,71.86c0,0,0.1,0.05,0.18,0.1c-0.01-0.1-0.02-0.2-0.02-0.2c-0.31-4.04-1.6-7.23-3.85-9.48
			c-1.75-1.75-3.48-2.29-3.67-2.34c0,0-0.07-0.02-0.12-0.04c-0.01,0.06-0.02,0.13-0.02,0.13c-0.01,0.03-0.05,0.34-0.05,0.86
			C9.36,62.94,10.09,68.14,16.9,71.86z"/>
		<path class="st2" d="M40.25,14.32c0-0.77-0.09-1.24-0.11-1.32c0,0-0.01-0.07-0.03-0.12C40.06,12.9,40,12.92,40,12.92
			c-0.19,0.07-1.89,0.69-3.55,2.54c-2.13,2.37-3.26,5.63-3.35,9.68c0,0,0,0.11-0.01,0.2c0.08-0.05,0.17-0.11,0.17-0.11
			C39.34,21.48,40.25,16.79,40.25,14.32z"/>
		<path class="st2" d="M26.23,86.46c0,0,0.1-0.01,0.19-0.02c-0.05-0.07-0.12-0.16-0.12-0.16c-3.05-4.06-6.26-5.37-8.42-5.76
			c-2.4-0.43-4.08,0.15-4.15,0.18c0,0-0.06,0.02-0.11,0.04c0.02,0.05,0.05,0.11,0.05,0.11C13.8,81.12,16.78,87.43,26.23,86.46z"/>
		<path class="st2" d="M15.26,61.33c0,0,0.09,0.07,0.16,0.13c0.01-0.1,0.02-0.2,0.02-0.2c0.06-0.71,0.09-1.3,0.09-1.82
			c0-8.37-5.38-11.02-5.61-11.13c0,0-0.06-0.03-0.12-0.05c-0.02,0.06-0.04,0.12-0.04,0.12l0,0c-0.03,0.1-0.31,1.02-0.31,2.42
			C9.46,53.5,10.46,57.53,15.26,61.33z"/>
		<path class="st2" d="M32.43,92.39c0,0,0.1-0.03,0.19-0.06c-0.07-0.06-0.14-0.13-0.14-0.13c-7.3-6.53-13.33-2.94-13.39-2.91
			c0,0-0.05,0.03-0.1,0.06c0.03,0.04,0.07,0.1,0.07,0.1C19.22,89.7,23.33,95.28,32.43,92.39z"/>
		<path class="st2" d="M20.99,79.35c-0.04-0.08-0.09-0.17-0.09-0.17c-2.39-4.5-5.36-6.33-7.42-7.06c-2.32-0.83-4.06-0.52-4.14-0.51
			c0,0-0.06,0.01-0.12,0.02c0.02,0.05,0.03,0.12,0.03,0.12c0.09,0.32,0.65,2.03,2.33,3.78c2.21,2.29,5.31,3.57,9.21,3.81
			C20.79,79.34,20.9,79.35,20.99,79.35z"/>
		<path class="st2" d="M22.87,34.99c0.98-2.24,1.48-4.43,1.48-6.5c0-4.12-1.93-6.56-2.15-6.82c0,0-0.05-0.06-0.09-0.1
			c-0.04,0.05-0.08,0.1-0.08,0.1c-0.21,0.26-2.07,2.67-2.07,6.7c0,2.26,0.6,4.65,1.77,7.1l0.48-0.2
			C22.43,35.17,22.65,35.08,22.87,34.99z"/>
		<path class="st2" d="M101.11,50.96c0,0,0.02,0.11,0.04,0.2c0.07-0.07,0.15-0.15,0.15-0.15c3.8-3.85,4.59-7.51,4.59-9.91
			c0-2.12-0.6-3.5-0.66-3.65c0,0-0.03-0.06-0.05-0.12c-0.05,0.03-0.11,0.07-0.11,0.07c-0.12,0.08-1.24,0.82-2.31,2.38
			c-1.38,2.02-2.08,4.45-2.08,7.25C100.68,48.24,100.82,49.56,101.11,50.96z"/>
		<path class="st2" d="M36.65,27.26c0,0-0.08,0.07-0.15,0.12c0.08,0.03,0.18,0.07,0.18,0.07c9.2,3.3,13.29-2.21,13.46-2.44
			c0,0,0.04-0.05,0.07-0.1c-0.05-0.03-0.1-0.07-0.1-0.07C49.87,24.69,44.07,21.09,36.65,27.26z"/>
		<path class="st2" d="M104.02,62.27c-2.24,2.25-3.54,5.44-3.85,9.48c0,0-0.01,0.11-0.02,0.2c0.08-0.05,0.18-0.1,0.18-0.1
			c6.81-3.72,7.54-8.92,7.54-10.98c0-0.53-0.05-0.85-0.05-0.86c0,0-0.01-0.07-0.02-0.12c-0.06,0.02-0.12,0.03-0.12,0.03
			C107.49,59.99,105.76,60.52,104.02,62.27z"/>
		<path class="st2" d="M41.63,22.89c0,0,0.01,0,0.01-0.01c0.03-0.02,1.23-0.88,1.46-1.04c-0.05-0.09-0.07-0.14-0.12-0.23
			c-5.17,2-9.97,5.01-13.88,8.69v0c-1.24,1.17-2.39,2.39-3.45,3.67c0.41-0.14,0.82-0.27,1.23-0.4
			C30.81,29.09,35.81,25.4,41.63,22.89z"/>
		<path class="st2" d="M101.7,59.43c0,0.51,0.03,1.11,0.09,1.82c0,0,0.01,0.11,0.02,0.21c0.07-0.06,0.16-0.13,0.16-0.13
			c4.8-3.79,5.8-7.83,5.8-10.54c0-1.42-0.28-2.32-0.31-2.42c0,0-0.02-0.06-0.04-0.12c-0.05,0.03-0.11,0.05-0.11,0.05
			C107.08,48.41,101.7,51.05,101.7,59.43z"/>
		<path class="st2" d="M39.62,31.18c0,0,0.03-0.06,0.06-0.11c-0.05-0.02-0.11-0.05-0.11-0.05c-0.3-0.13-1.93-0.75-4.3-0.47
			c-1.94,0.23-3.79,0.98-5.55,2.23c3.21-0.79,6.47-1.25,9.76-1.37C39.57,31.27,39.62,31.18,39.62,31.18z"/>
		<path class="st2" d="M40.31,95.84c-0.1-0.04-0.21-0.08-0.21-0.08c-4.16-1.66-8-1.98-11.4-0.95c-2.64,0.8-4.06,2.16-4.22,2.32
			c0,0-0.05,0.05-0.1,0.1c0.05,0.04,0.11,0.07,0.11,0.07c0.66,0.43,6.75,4.06,15.61-1.35C40.12,95.96,40.22,95.9,40.31,95.84z"/>
		<path class="st2" d="M34.51,101.89c0,0-0.03,0.05-0.06,0.1c0.05,0.03,0.1,0.06,0.1,0.06c0.25,0.14,6.26,3.4,13.33-3.18
			c0,0,0.08-0.07,0.14-0.13c-0.09-0.03-0.19-0.05-0.19-0.05C38.51,95.92,34.67,101.64,34.51,101.89z"/>
		<path class="st2" d="M75.66,90.83c0,0.55,0.03,1.19,0.11,1.95c0,0,0.01,0.11,0.02,0.2c0.07-0.06,0.16-0.13,0.16-0.13
			c4.74-3.8,5.73-7.81,5.73-10.51c0-0.39-0.02-0.74-0.05-1.05c-0.65-0.16-1.31-0.3-1.97-0.43C78.01,82.31,75.66,85.33,75.66,90.83z"
			/>
		<path class="st2" d="M67.02,24.91c0.03,0.04,0.07,0.09,0.07,0.09c0.18,0.23,4.44,5.67,13.46,2.45c0,0,0.1-0.04,0.18-0.07
			c-0.07-0.06-0.15-0.12-0.15-0.12c-7.5-6.24-13.41-2.46-13.47-2.42C67.12,24.84,67.06,24.88,67.02,24.91z"/>
		<path class="st2" d="M18.63,42.02c0,0,0.07,0.09,0.13,0.16c0.03-0.09,0.06-0.2,0.06-0.2c0.56-1.88,0.84-3.65,0.84-5.25
			c0-5.71-3.26-8.32-3.63-8.6c0,0-0.05-0.04-0.1-0.08c-0.03,0.05-0.06,0.11-0.06,0.11h0c-0.1,0.18-1.01,1.88-1.01,4.53
			C14.86,35.85,16.13,38.99,18.63,42.02z"/>
		<path class="st2" d="M20.45,47.1c0.09-0.02,0.2-0.04,0.2-0.04c0.34-0.07,0.67-0.15,0.99-0.23V44.4c-0.41,0.77-0.79,1.61-1.12,2.51
			C20.51,46.91,20.48,47.01,20.45,47.1z"/>
		<path class="st2" d="M20.43,70.34c0,0,0.03,0.11,0.05,0.2c0.07-0.07,0.14-0.15,0.14-0.15c0.37-0.4,0.7-0.8,1.01-1.2V59.13
			c-0.93,1.49-1.8,3.68-1.8,6.71C19.83,67.22,20.03,68.73,20.43,70.34z"/>
		<path class="st2" d="M50.52,13.22c0.68-1.68,0.82-3.21,0.82-4.2c0-0.63-0.06-1.01-0.06-1.02c-0.01-0.09-0.05-0.2-0.11-0.25
			c-0.02-0.01-0.06-0.05-0.19-0.03c0,0,0,0,0,0l-0.04,0c-0.1,0.01-2.38,0.16-4.74,1.86c-3.06,2.21-4.9,6.12-5.34,11.3
			c0,0-0.01,0.09-0.01,0.16c0.07-0.02,0.16-0.05,0.16-0.05C45.79,19.47,49.08,16.78,50.52,13.22z"/>
		<path class="st2" d="M99.99,58.69c0,6.14-1.53,12.15-4.39,17.57v1.37c3.27-5.75,5.01-12.22,5.01-18.94
			c0-6.72-1.74-13.19-5.01-18.94v1.41C98.43,46.51,99.99,52.5,99.99,58.69z"/>
		<path class="st2" d="M107.89,71.61c-0.19-0.03-1.97-0.29-4.26,0.56h0c-2.95,1.09-5.41,3.45-7.3,7.01c0,0-0.05,0.09-0.09,0.17
			c0.09-0.01,0.2-0.01,0.2-0.01c9.62-0.59,11.53-7.53,11.55-7.6c0,0,0.02-0.06,0.03-0.12C107.96,71.62,107.89,71.61,107.89,71.61z"
			/>
		<path class="st2" d="M83.21,83.64c0,1.37,0.2,2.87,0.59,4.47c0,0,0.03,0.11,0.05,0.2c0.07-0.07,0.14-0.15,0.14-0.15
			c1.65-1.8,2.69-3.54,3.32-5.11c-1.31-0.5-2.63-0.93-3.97-1.3C83.25,82.33,83.21,82.97,83.21,83.64z"/>
		<path class="st2" d="M26.95,30.62c0.07-0.07,0.14-0.15,0.14-0.15c3.73-3.85,4.51-7.48,4.51-9.85c0-2.18-0.62-3.58-0.69-3.74
			c0,0-0.03-0.06-0.05-0.12c-0.05,0.03-0.11,0.07-0.11,0.07c-0.12,0.08-1.22,0.82-2.27,2.37c-1.35,2-2.04,4.41-2.04,7.17
			c0,1.24,0.16,2.6,0.47,4.05C26.9,30.41,26.93,30.52,26.95,30.62z"/>
		<path class="st2" d="M18.55,58.02c0.09-0.04,0.18-0.08,0.18-0.08c1.11-0.51,2.06-1.06,2.9-1.64v-6.17
			c-1.57,1.97-2.6,4.55-3.05,7.69C18.58,57.82,18.56,57.92,18.55,58.02z"/>
		<path class="st2" d="M81.77,30.52c-2.45-0.24-4.04,0.47-4.1,0.5c0,0-0.06,0.03-0.11,0.05c0.03,0.05,0.06,0.1,0.06,0.1
			c0.01,0.03,0.06,0.11,0.14,0.24c3.29,0.13,6.54,0.59,9.74,1.37C85.29,31.22,83.27,30.67,81.77,30.52z"/>
		<path class="st2" d="M16.08,51.16c0.02-0.09,0.04-0.2,0.04-0.2c0.29-1.4,0.43-2.72,0.43-3.92c0-2.8-0.7-5.24-2.08-7.25
			c-1.07-1.56-2.19-2.3-2.31-2.38c0,0-0.06-0.04-0.11-0.07c-0.02,0.05-0.05,0.12-0.05,0.12c-0.07,0.15-0.66,1.52-0.66,3.65
			c0,2.39,0.8,6.05,4.59,9.9C15.93,51.01,16.01,51.09,16.08,51.16z"/>
		<path class="st2" d="M90.28,30.62c0.02-0.09,0.04-0.2,0.04-0.2c0.31-1.45,0.47-2.81,0.47-4.05c0-6.53-3.87-9.25-4.31-9.54
			c0,0-0.06-0.04-0.11-0.07c-0.03,0.05-0.05,0.12-0.05,0.12c-0.07,0.15-0.69,1.56-0.69,3.74c0,2.37,0.78,6.01,4.51,9.85
			C90.14,30.47,90.22,30.55,90.28,30.62z"/>
		<path class="st2" d="M83.97,25.24c0,0,0.09,0.06,0.17,0.11c0-0.1,0-0.2,0-0.2c-0.1-4.05-1.23-7.31-3.35-9.68
			c-1.65-1.85-3.36-2.48-3.55-2.54c0,0-0.06-0.02-0.12-0.04C77.1,12.93,77.09,13,77.09,13c-0.02,0.09-0.11,0.55-0.11,1.33
			C76.99,16.79,77.89,21.48,83.97,25.24z"/>
		<path class="st2" d="M88.14,30.3c-3.91-3.69-8.71-6.69-13.88-8.69c-0.05,0.09-0.07,0.14-0.12,0.23c0.22,0.16,1.43,1.02,1.46,1.04
			c0,0,0.01,0,0.01,0c5.81,2.51,10.82,6.2,14.76,10.69c0.41,0.13,0.82,0.26,1.23,0.4C90.53,32.69,89.38,31.47,88.14,30.3z"/>
		<path class="st2" d="M95.5,35.47c1.17-2.45,1.77-4.83,1.77-7.1c0-4.03-1.86-6.44-2.07-6.7c0,0-0.05-0.06-0.08-0.1
			c-0.04,0.05-0.09,0.1-0.09,0.1c-0.22,0.26-2.15,2.7-2.15,6.82c0,2.08,0.5,4.26,1.48,6.5c0.22,0.09,0.44,0.18,0.66,0.27L95.5,35.47
			z"/>
		<path class="st2" d="M76.22,20.99c0,0,0.08,0.03,0.16,0.05c-0.01-0.08-0.01-0.16-0.01-0.16c-0.43-5.18-2.28-9.09-5.34-11.3
			c-2.35-1.7-4.65-1.86-4.74-1.86c-0.12-0.01-0.18,0-0.22,0.03l0,0c-0.07,0.06-0.1,0.19-0.11,0.23l0,0.03c0,0.02-0.06,0.4-0.06,1.02
			c0,0.99,0.14,2.52,0.82,4.2C68.15,16.78,71.44,19.47,76.22,20.99z"/>
		<path class="st2" d="M98.47,42.18c0.06-0.07,0.13-0.16,0.13-0.16c2.5-3.03,3.77-6.17,3.77-9.32c0-2.68-0.91-4.35-1.01-4.53
			c0,0-0.03-0.06-0.06-0.11c-0.05,0.04-0.1,0.08-0.1,0.08c-0.37,0.29-3.62,2.96-3.62,8.67c0,1.58,0.28,3.33,0.82,5.18
			C98.41,41.98,98.44,42.09,98.47,42.18z"/>
		<path class="st2" d="M46.66,86.84c-1.93-1.53-3.7-1.84-3.9-1.87c0,0-0.07-0.01-0.13-0.02c0,0.11,0,0.22,0,0.22
			c0,0.74,0.25,7.33,8.78,10.75c0,0,0.1,0.04,0.19,0.08c-0.02-0.09-0.04-0.2-0.04-0.2C50.8,91.82,49.15,88.8,46.66,86.84z"/>
		<path class="st2" d="M35.56,82.35c0,2.7,0.99,6.71,5.73,10.51c0,0,0.09,0.07,0.16,0.13c0.01-0.1,0.02-0.2,0.02-0.2
			c0.07-0.76,0.11-1.4,0.11-1.95c0-5.51-2.35-8.53-4-9.96c-0.66,0.13-1.32,0.27-1.97,0.43C35.58,81.61,35.56,81.96,35.56,82.35z"/>
		<path class="st2" d="M33.25,88.16c0,0,0.08,0.08,0.14,0.15c0.02-0.09,0.05-0.2,0.05-0.2c0.39-1.6,0.59-3.1,0.59-4.47
			c0-0.68-0.05-1.31-0.12-1.9c-1.34,0.37-2.67,0.81-3.97,1.3C30.57,84.62,31.6,86.36,33.25,88.16z"/>
		<path class="st2" d="M96.79,47.1c-0.03-0.09-0.07-0.19-0.07-0.19c-0.34-0.93-0.72-1.77-1.12-2.52v2.43
			c0.32,0.08,0.66,0.16,0.99,0.23C96.59,47.06,96.69,47.08,96.79,47.1z"/>
		<path class="st2" d="M74.47,84.97c-0.19,0.03-1.96,0.34-3.89,1.86c-2.49,1.96-4.14,4.98-4.91,8.96c0,0-0.02,0.11-0.04,0.2
			c0.09-0.04,0.19-0.08,0.19-0.08c8.53-3.42,8.78-10.01,8.78-10.75c0,0,0-0.11,0-0.22C74.54,84.96,74.47,84.97,74.47,84.97z"/>
		<path class="st2" d="M98.68,58.02c-0.01-0.09-0.03-0.2-0.03-0.2c-0.45-3.14-1.48-5.72-3.05-7.7v6.17c0.83,0.58,1.79,1.13,2.9,1.64
			C98.5,57.93,98.59,57.98,98.68,58.02z"/>
		<path class="st2" d="M17.24,58.69c0-6.19,1.56-12.17,4.39-17.52v-1.41c-3.27,5.75-5,12.22-5,18.93c0,6.72,1.73,13.18,5,18.93
			v-1.37C18.77,70.84,17.24,64.83,17.24,58.69z"/>
		<path class="st2" d="M60.39,99.79L60,99.58l0.41-0.14c2.49-0.86,4.53-1.17,4.55-1.17c8.8-1.32,16.81-5.19,23.17-11.18
			c0.89-0.84,1.74-1.71,2.54-2.61l-0.14-0.06c-0.16-0.08-0.33-0.15-0.49-0.23c-0.06,0.06-0.12,0.13-0.17,0.2
			c-6.45,7.05-15.34,11.73-25.05,13.19l-0.01,0l-0.01,0c-0.3,0.02-3.06,0.22-6.1,1.4l-0.07,0.03l-0.07-0.03
			c-3.04-1.18-5.8-1.37-6.11-1.39h-0.01l-0.01,0c-9.73-1.45-18.64-6.14-25.09-13.19c-0.06-0.06-0.12-0.13-0.18-0.2
			c-0.17,0.08-0.33,0.15-0.5,0.23l-0.14,0.06c0.8,0.9,1.65,1.77,2.54,2.61c6.36,5.99,14.37,9.86,23.17,11.18
			c0.02,0,2.08,0.31,4.58,1.18l0.42,0.14l-0.39,0.2c-3.39,1.76-5.49,4.31-6.24,7.58c0,0-0.01,0.04-0.02,0.07
			c0.14,0.1,0.7,0.5,1.03,0.73c0.01-0.09,0.01-0.2,0.01-0.2c0.2-3.21,2.48-5.82,6.77-7.74l0.2-0.09l0.08,0.03
			c4.3,1.9,6.67,4.59,6.88,7.8c0,0,0.01,0.11,0.01,0.2c0.32-0.23,0.89-0.63,1.03-0.73c-0.01-0.03-0.02-0.07-0.02-0.07
			C65.85,104.09,63.76,101.54,60.39,99.79z"/>
		<path class="st2" d="M99.18,80.56c-3.08,0.6-5.85,2.52-8.26,5.72c0,0-0.06,0.08-0.12,0.16C90.9,86.45,91,86.46,91,86.46
			c9.6,0.99,12.53-5.54,12.56-5.61c0,0,0.03-0.06,0.05-0.11c-0.05-0.02-0.11-0.04-0.11-0.04C103.3,80.64,101.58,80.09,99.18,80.56z"
			/>
		<path class="st2" d="M69.4,98.68c0,0-0.1,0.03-0.19,0.05c0.07,0.06,0.14,0.13,0.14,0.13c7.17,6.67,13.27,3.21,13.33,3.18
			c0,0,0.05-0.03,0.1-0.06c-0.03-0.04-0.07-0.1-0.07-0.1C82.56,101.64,78.57,95.98,69.4,98.68z"/>
		<path class="st2" d="M77.13,95.76c0,0-0.11,0.04-0.21,0.08c0.09,0.05,0.19,0.12,0.19,0.12c3.77,2.3,7.48,3.26,11.03,2.85
			c2.75-0.32,4.41-1.38,4.59-1.5c0,0,0.06-0.04,0.12-0.08c-0.05-0.04-0.1-0.1-0.1-0.1C92.15,96.59,86.74,91.94,77.13,95.76z"/>
		<path class="st2" d="M84.76,92.21c0,0-0.08,0.07-0.14,0.13c0.09,0.03,0.19,0.06,0.19,0.06c9.32,2.96,13.22-2.69,13.38-2.94
			c0,0,0.03-0.05,0.07-0.1c-0.05-0.03-0.1-0.06-0.1-0.06C97.9,89.15,91.98,85.74,84.76,92.21z"/>
		<path class="st2" d="M96.75,70.54c0.02-0.09,0.05-0.2,0.05-0.2c0.39-1.61,0.59-3.12,0.59-4.5c0-3.03-0.87-5.23-1.8-6.72v10.06
			c0.31,0.4,0.65,0.8,1.02,1.21C96.61,70.39,96.69,70.47,96.75,70.54z"/>
	</g>
	<g class="st1">
		<path class="st3" d="M26.22,82.85c0.01,0.14,0.03,0.35,0.06,0.58c8.71-4.06,18.23-5.39,27.74-3.89
			C44.55,77.83,35,78.96,26.22,82.85z"/>
		<path class="st3" d="M25.95,81.59c0,0-0.29,0.12-0.45,0.19c0.01,0.09,0.03,0.36,0.05,0.62c0.16-0.07,0.33-0.15,0.33-0.15
			c8.41-3.69,17.51-4.87,26.56-3.49C43.46,77.16,34.39,78.12,25.95,81.59z"/>
		<path class="st3" d="M25.82,80.29l-0.57,0.22c0,0-0.35,0.14-0.54,0.22c0.01,0.15,0.03,0.5,0.04,0.62c0.2-0.09,0.43-0.18,0.43-0.18
			l0.59-0.24c8.38-3.38,17.34-4.31,26.21-2.77C43.17,76.4,34.23,77.12,25.82,80.29z"/>
		<path class="st3" d="M25.72,79.01l-0.57,0.2l-0.67,0.25c0,0-0.34,0.13-0.54,0.21c0.01,0.15,0.02,0.38,0.03,0.62
			c0.2-0.08,0.42-0.17,0.42-0.17l0.68-0.27l0.58-0.22c5.11-1.89,10.45-2.89,15.88-2.97c3.35-0.05,6.7,0.25,10.01,0.9
			c-3.26-0.72-6.57-1.1-9.89-1.13C36.23,76.36,30.87,77.23,25.72,79.01z"/>
		<path class="st3" d="M25.63,77.66l-0.56,0.18l-0.66,0.22c0,0-0.67,0.23-0.67,0.23s-0.34,0.12-0.54,0.19
			c0,0.13,0.01,0.45,0.02,0.72c0.2-0.08,0.42-0.16,0.42-0.16l0.68-0.26L25,78.53l0.57-0.2c5.22-1.76,10.65-2.6,16.14-2.51
			c2.26,0.04,4.52,0.25,6.76,0.61c-2.2-0.42-4.42-0.69-6.66-0.8C36.34,75.37,30.89,76.05,25.63,77.66z"/>
		<g>
			<path class="st3" d="M39.92,36.09c-2.34,0.06-4.67,0.34-6.96,0.84c-1.15,0.25-2.28,0.55-3.41,0.91
				c-1.13,0.36-2.24,0.76-3.34,1.23c0,0.01,0,0.15,0,0.39c1.1-0.46,2.22-0.87,3.34-1.23c1.13-0.36,2.26-0.66,3.41-0.91
				c2.29-0.5,4.62-0.78,6.96-0.84c2.36-0.06,4.71,0.1,7.02,0.49c1.16,0.19,2.31,0.44,3.45,0.74c1.14,0.3,2.27,0.66,3.39,1.07
				c0-0.24,0-0.37,0-0.39c-1.12-0.41-2.25-0.77-3.39-1.07c-1.14-0.3-2.29-0.55-3.45-0.74C44.63,36.19,42.28,36.03,39.92,36.09z"/>
			<path class="st3" d="M33.15,40.08c-0.98,0.2-1.96,0.43-2.93,0.71c-0.06,0.02-0.15,0.05-0.21,0.06c-0.06,0.02-0.18,0.05-0.24,0.07
				c-0.07,0.02-0.18,0.06-0.25,0.08c-0.07,0.02-0.18,0.06-0.25,0.08c-0.48,0.15-0.97,0.32-1.46,0.5c-0.53,0.21-1.06,0.43-1.59,0.65
				c0,0.02,0,0.14,0,0.36c0.09-0.04,0.19-0.08,0.27-0.11c0.16-0.07,0.37-0.15,0.54-0.21c0.16-0.06,0.37-0.14,0.53-0.2
				c0.16-0.06,0.36-0.13,0.52-0.19c0.13-0.05,0.31-0.11,0.44-0.15c0.35-0.12,0.69-0.23,1.04-0.34c1.13-0.35,2.26-0.65,3.41-0.89
				c0.64-0.14,1.28-0.25,1.92-0.36c1.66-0.26,3.34-0.41,5.03-0.45c0.51-0.01,1.01-0.01,1.52,0c1.84,0.03,3.68,0.21,5.49,0.52
				c0.32,0.05,0.65,0.11,0.97,0.18c0.83,0.16,1.65,0.35,2.46,0.57c0.24,0.06,0.48,0.13,0.72,0.2c0.89,0.26,1.78,0.55,2.66,0.88
				c0.01-0.21,0.02-0.33,0.03-0.34c-0.03-0.01-0.06-0.02-0.09-0.03c-0.11-0.04-0.22-0.1-0.33-0.16c-0.96-0.35-1.93-0.65-2.9-0.91
				c-0.08-0.02-0.16-0.04-0.24-0.06c-1.06-0.28-2.12-0.51-3.19-0.7c-2.29-0.39-4.62-0.57-6.95-0.53
				C37.73,39.35,35.43,39.62,33.15,40.08z"/>
			<path class="st3" d="M33.33,43.23c-1.1,0.21-2.2,0.46-3.29,0.77c-0.05,0.01-0.18,0.05-0.23,0.07c-0.06,0.02-0.22,0.07-0.27,0.08
				c-0.06,0.02-0.22,0.07-0.28,0.09c-0.06,0.02-0.22,0.07-0.28,0.09c-0.43,0.14-0.89,0.29-1.34,0.46c-0.48,0.2-0.95,0.41-1.42,0.62
				c0,0.02,0,0.13,0,0.33c0.1-0.04,0.2-0.08,0.27-0.11c0.14-0.06,0.39-0.15,0.53-0.21c0.14-0.06,0.39-0.14,0.53-0.2
				c0.14-0.05,0.38-0.14,0.52-0.19c0.12-0.04,0.32-0.11,0.44-0.15c0.35-0.12,0.69-0.23,1.04-0.34c1.13-0.34,2.26-0.63,3.4-0.87
				c0.64-0.13,1.28-0.25,1.92-0.35c1.66-0.25,3.33-0.4,5.02-0.43c0.51-0.01,1.01-0.01,1.51,0c1.84,0.04,3.67,0.22,5.48,0.54
				c0.32,0.06,0.65,0.12,0.97,0.18c0.82,0.17,1.64,0.36,2.46,0.58c0.24,0.06,0.48,0.13,0.72,0.2c0.89,0.26,1.78,0.56,2.65,0.89
				C53.72,45.1,53.74,45,53.76,45c-0.02-0.01-0.04-0.02-0.07-0.02c-0.1-0.04-0.2-0.1-0.3-0.18c-0.96-0.35-1.92-0.66-2.89-0.93
				c-0.08-0.02-0.16-0.04-0.24-0.07c-1.05-0.28-2.12-0.52-3.19-0.71c-2.27-0.4-4.57-0.59-6.89-0.57
				C37.88,42.54,35.6,42.8,33.33,43.23z"/>
			<path class="st3" d="M33.51,46.38c-1.22,0.22-2.45,0.48-3.65,0.83c-0.04,0.01-0.21,0.06-0.26,0.08c-0.05,0.02-0.25,0.08-0.3,0.09
				c-0.05,0.02-0.25,0.08-0.31,0.1c-0.05,0.02-0.26,0.09-0.31,0.1c-0.38,0.12-0.8,0.26-1.21,0.41c-0.42,0.2-0.84,0.39-1.25,0.58
				c0,0.02,0,0.12,0,0.3c0.1-0.04,0.21-0.08,0.27-0.11c0.13-0.05,0.41-0.16,0.53-0.21c0.13-0.05,0.4-0.15,0.53-0.2
				c0.12-0.05,0.4-0.14,0.52-0.19c0.1-0.04,0.34-0.11,0.44-0.15c0.35-0.11,0.69-0.23,1.04-0.33c1.13-0.34,2.26-0.62,3.4-0.86
				c0.64-0.13,1.28-0.24,1.92-0.34c1.66-0.25,3.33-0.38,5.01-0.4c0.5-0.01,1.01,0,1.51,0.01c1.84,0.05,3.66,0.24,5.46,0.56
				c0.32,0.06,0.65,0.12,0.97,0.19c0.82,0.17,1.64,0.36,2.45,0.59c0.24,0.07,0.48,0.13,0.71,0.2c0.89,0.26,1.77,0.56,2.65,0.89
				c0.03-0.16,0.07-0.24,0.1-0.24c-0.02-0.01-0.03-0.01-0.05-0.02c-0.09-0.04-0.18-0.11-0.26-0.21c-0.95-0.35-1.91-0.67-2.88-0.94
				c-0.08-0.02-0.16-0.05-0.24-0.07c-1.05-0.29-2.11-0.53-3.18-0.73c-2.25-0.41-4.53-0.62-6.82-0.61
				C38.04,45.74,35.76,45.98,33.51,46.38z"/>
			<path class="st3" d="M33.7,49.53c-1.35,0.23-2.69,0.51-4.01,0.9c-0.04,0.01-0.24,0.07-0.28,0.08c-0.04,0.01-0.29,0.09-0.33,0.1
				c-0.04,0.01-0.29,0.09-0.34,0.11c-0.05,0.01-0.29,0.1-0.34,0.11c-0.33,0.1-0.71,0.23-1.09,0.37c-0.36,0.19-0.73,0.37-1.09,0.55
				c0,0.02,0,0.11,0,0.27c0.11-0.04,0.21-0.08,0.27-0.11c0.11-0.04,0.42-0.16,0.53-0.2c0.11-0.04,0.42-0.15,0.53-0.19
				c0.11-0.04,0.42-0.14,0.52-0.18c0.09-0.03,0.35-0.12,0.44-0.15c0.35-0.11,0.69-0.22,1.04-0.32c1.12-0.33,2.26-0.61,3.4-0.84
				c0.64-0.13,1.28-0.24,1.92-0.33c1.66-0.24,3.33-0.37,5-0.38c0.5,0,1.01,0,1.51,0.02c1.83,0.06,3.65,0.25,5.45,0.58
				c0.32,0.06,0.65,0.12,0.97,0.19c0.82,0.17,1.63,0.37,2.45,0.59c0.24,0.07,0.47,0.13,0.71,0.21c0.89,0.27,1.77,0.57,2.64,0.9
				c0.04-0.13,0.09-0.2,0.13-0.19c-0.01,0-0.02-0.01-0.03-0.01c-0.08-0.03-0.15-0.11-0.23-0.23c-0.95-0.36-1.91-0.68-2.87-0.95
				c-0.08-0.02-0.16-0.05-0.24-0.07c-1.05-0.3-2.1-0.54-3.17-0.75c-2.23-0.42-4.48-0.64-6.76-0.65
				C38.19,48.93,35.93,49.16,33.7,49.53z"/>
			<path class="st3" d="M33.88,52.69c-1.47,0.23-2.93,0.53-4.37,0.96c-0.03,0.01-0.27,0.08-0.31,0.09c-0.04,0.01-0.32,0.1-0.36,0.11
				c-0.04,0.01-0.33,0.11-0.37,0.12c-0.04,0.01-0.33,0.11-0.37,0.12c-0.28,0.09-0.62,0.21-0.96,0.33c-0.31,0.18-0.61,0.35-0.92,0.51
				c0,0.02,0,0.1,0,0.23c0.11-0.04,0.22-0.09,0.27-0.11c0.09-0.04,0.44-0.16,0.53-0.2c0.09-0.04,0.44-0.16,0.53-0.19
				c0.09-0.03,0.43-0.15,0.52-0.18c0.08-0.03,0.36-0.12,0.44-0.14c0.35-0.11,0.69-0.22,1.04-0.32c1.12-0.33,2.26-0.6,3.4-0.82
				c0.64-0.12,1.28-0.23,1.92-0.32c1.65-0.23,3.32-0.35,5-0.36c0.5,0,1.01,0.01,1.51,0.02c1.83,0.06,3.64,0.26,5.44,0.6
				c0.32,0.06,0.64,0.12,0.96,0.19c0.82,0.17,1.63,0.37,2.44,0.6c0.24,0.07,0.47,0.14,0.71,0.21c0.88,0.27,1.76,0.57,2.63,0.9
				c0.06-0.1,0.11-0.15,0.17-0.14c0,0-0.01,0-0.01,0c-0.06-0.03-0.13-0.12-0.19-0.25c-0.95-0.36-1.9-0.68-2.86-0.97
				c-0.08-0.02-0.16-0.05-0.24-0.07c-1.04-0.3-2.1-0.56-3.16-0.76c-2.2-0.43-4.44-0.66-6.69-0.69
				C38.34,52.13,36.1,52.33,33.88,52.69z"/>
			<path class="st3" d="M34.06,55.84c-1.59,0.24-3.17,0.56-4.72,1.02c-0.03,0.01-0.31,0.09-0.33,0.1c-0.03,0.01-0.36,0.11-0.39,0.12
				c-0.03,0.01-0.36,0.12-0.39,0.13c-0.03,0.01-0.37,0.12-0.4,0.13c-0.23,0.07-0.53,0.18-0.84,0.29c-0.25,0.18-0.5,0.34-0.75,0.48
				c0,0.02,0,0.1,0,0.2c0.11-0.04,0.23-0.09,0.27-0.1c0.08-0.03,0.46-0.17,0.53-0.2c0.08-0.03,0.45-0.16,0.53-0.19
				c0.07-0.03,0.45-0.15,0.52-0.18c0.06-0.02,0.38-0.12,0.44-0.14c0.35-0.11,0.69-0.22,1.04-0.31c1.12-0.32,2.26-0.59,3.4-0.81
				c0.64-0.12,1.27-0.22,1.91-0.31c1.65-0.22,3.32-0.34,4.99-0.34c0.5,0,1,0.01,1.5,0.03c1.82,0.07,3.64,0.28,5.43,0.62
				c0.32,0.06,0.64,0.12,0.96,0.19c0.82,0.18,1.63,0.38,2.43,0.61c0.24,0.07,0.47,0.14,0.71,0.21c0.88,0.27,1.76,0.57,2.63,0.91
				c0.07-0.08,0.13-0.11,0.2-0.09c0,0,0.01,0,0.01,0.01c-0.05-0.03-0.11-0.13-0.16-0.28c-0.94-0.37-1.9-0.69-2.86-0.98
				c-0.08-0.02-0.16-0.05-0.24-0.07c-1.04-0.31-2.09-0.57-3.15-0.78c-2.18-0.44-4.4-0.69-6.63-0.73
				C38.49,55.33,36.26,55.51,34.06,55.84z"/>
			<path class="st3" d="M34.23,58.95c-1.71,0.24-3.41,0.59-5.08,1.08c-0.02,0.01-0.34,0.1-0.36,0.11c-0.02,0.01-0.4,0.12-0.42,0.13
				c-0.02,0.01-0.4,0.13-0.42,0.14c-0.02,0.01-0.4,0.14-0.43,0.15c-0.18,0.06-0.44,0.15-0.71,0.25c-0.2,0.17-0.39,0.32-0.59,0.44
				c0,0.03,0,0.09,0,0.17c0.12-0.04,0.24-0.09,0.27-0.1c0.06-0.02,0.47-0.17,0.53-0.19c0.06-0.02,0.47-0.16,0.53-0.18
				c0.06-0.02,0.47-0.15,0.52-0.17c0.05-0.02,0.39-0.12,0.44-0.14c0.35-0.11,0.69-0.21,1.04-0.31c1.12-0.32,2.26-0.58,3.4-0.79
				c0.64-0.12,1.27-0.22,1.91-0.3c1.65-0.22,3.31-0.32,4.98-0.31c0.5,0,1,0.01,1.5,0.04c1.82,0.08,3.63,0.29,5.42,0.64
				c0.32,0.06,0.64,0.13,0.96,0.2c0.81,0.18,1.62,0.38,2.43,0.62c0.24,0.07,0.47,0.14,0.71,0.21c0.88,0.27,1.75,0.58,2.62,0.92
				c0.08-0.05,0.16-0.06,0.23-0.03c0.01,0,0.02,0.01,0.03,0.01c-0.04-0.03-0.08-0.13-0.12-0.3c-0.94-0.37-1.89-0.7-2.85-1
				c-0.08-0.02-0.16-0.05-0.24-0.07c-1.04-0.31-2.08-0.58-3.14-0.8c-2.16-0.45-4.35-0.71-6.56-0.77
				C38.63,58.48,36.42,58.64,34.23,58.95z"/>
			<path class="st3" d="M34.41,62.03c-1.83,0.24-3.65,0.61-5.44,1.14c-0.01,0-0.37,0.11-0.38,0.11c-0.02,0-0.43,0.14-0.45,0.14
				c-0.02,0.01-0.44,0.14-0.45,0.15c-0.02,0-0.44,0.15-0.46,0.16c-0.13,0.04-0.36,0.12-0.58,0.2c-0.14,0.17-0.28,0.3-0.42,0.41
				c0,0.03,0,0.08,0,0.14c0.12-0.05,0.25-0.09,0.27-0.1c0.04-0.02,0.49-0.18,0.53-0.19c0.04-0.02,0.49-0.17,0.53-0.18
				c0.04-0.02,0.48-0.16,0.52-0.17c0.03-0.01,0.41-0.13,0.44-0.14c0.35-0.11,0.69-0.21,1.04-0.3c1.12-0.31,2.26-0.57,3.39-0.77
				c0.63-0.11,1.27-0.21,1.91-0.29c1.65-0.21,3.31-0.31,4.98-0.29c0.5,0,1,0.02,1.5,0.04c1.82,0.09,3.62,0.31,5.41,0.66
				c0.32,0.06,0.64,0.13,0.96,0.2c0.81,0.18,1.62,0.39,2.42,0.62c0.23,0.07,0.47,0.14,0.7,0.21c0.88,0.27,1.75,0.58,2.61,0.92
				c0.09-0.02,0.18-0.02,0.27,0.02c0.02,0.01,0.03,0.01,0.05,0.02c-0.03-0.02-0.06-0.14-0.09-0.33c-0.94-0.37-1.88-0.71-2.84-1.01
				c-0.08-0.02-0.16-0.05-0.24-0.07c-1.03-0.32-2.08-0.59-3.13-0.81c-2.14-0.46-4.31-0.73-6.5-0.81
				C38.78,61.61,36.58,61.74,34.41,62.03z"/>
			<path class="st3" d="M34.58,65.11c-1.95,0.25-3.89,0.64-5.8,1.2c-0.01,0-0.4,0.12-0.4,0.12c-0.01,0-0.47,0.15-0.48,0.15
				c-0.01,0-0.47,0.16-0.48,0.16c-0.01,0-0.48,0.16-0.49,0.17c-0.08,0.02-0.27,0.09-0.46,0.16c-0.08,0.16-0.17,0.28-0.25,0.38
				c0,0.03,0,0.07,0,0.11c0.13-0.05,0.26-0.09,0.27-0.1c0.03-0.01,0.51-0.18,0.53-0.19c0.03-0.01,0.5-0.17,0.53-0.18
				c0.03-0.01,0.5-0.16,0.52-0.17c0.02-0.01,0.42-0.13,0.44-0.14c0.35-0.1,0.69-0.2,1.04-0.3c1.12-0.3,2.25-0.56,3.39-0.76
				c0.63-0.11,1.27-0.2,1.91-0.28c1.65-0.2,3.31-0.29,4.97-0.27c0.5,0.01,1,0.02,1.5,0.05c1.81,0.09,3.61,0.32,5.39,0.68
				c0.32,0.06,0.64,0.13,0.96,0.2c0.81,0.18,1.61,0.39,2.41,0.63c0.23,0.07,0.47,0.14,0.7,0.21c0.88,0.28,1.75,0.59,2.61,0.93
				c0.1,0.01,0.2,0.03,0.3,0.07c0.02,0.01,0.05,0.02,0.07,0.03c-0.02-0.02-0.04-0.14-0.05-0.35c-0.93-0.38-1.88-0.72-2.83-1.02
				c-0.08-0.02-0.16-0.05-0.24-0.07c-1.03-0.32-2.07-0.6-3.12-0.83c-2.12-0.47-4.27-0.75-6.43-0.85
				C38.92,64.73,36.74,64.83,34.58,65.11z"/>
			<path class="st3" d="M34.75,68.18c-2.08,0.24-4.13,0.66-6.16,1.26c0,0-0.43,0.13-0.43,0.13c0,0-0.51,0.16-0.51,0.16
				c0,0-0.51,0.17-0.51,0.17c0,0-0.51,0.18-0.52,0.18c-0.03,0.01-0.18,0.06-0.33,0.12c-0.03,0.15-0.06,0.27-0.08,0.34
				c0,0.03,0,0.06,0,0.08c0.13-0.05,0.27-0.1,0.27-0.1c0.01,0,0.52-0.18,0.53-0.19c0.01,0,0.52-0.17,0.53-0.18
				c0.01,0,0.52-0.16,0.52-0.17c0.01,0,0.44-0.13,0.44-0.13c0.35-0.1,0.69-0.2,1.04-0.29c1.12-0.3,2.25-0.55,3.39-0.74
				c0.63-0.11,1.27-0.2,1.91-0.27c1.64-0.19,3.3-0.28,4.96-0.25c0.5,0.01,1,0.03,1.49,0.05c1.81,0.1,3.61,0.33,5.38,0.69
				c0.32,0.07,0.64,0.13,0.96,0.21c0.81,0.19,1.61,0.4,2.41,0.64c0.23,0.07,0.47,0.14,0.7,0.22c0.87,0.28,1.74,0.59,2.6,0.93
				c0.11,0.03,0.22,0.07,0.33,0.12c0.03,0.01,0.06,0.02,0.09,0.04c-0.01-0.02-0.01-0.15-0.02-0.38c-0.93-0.38-1.87-0.73-2.82-1.04
				c-0.08-0.03-0.16-0.05-0.23-0.08c-1.03-0.33-2.06-0.61-3.11-0.85c-2.1-0.48-4.22-0.78-6.36-0.89
				C39.06,67.85,36.9,67.92,34.75,68.18z"/>
		</g>
		<path class="st3" d="M91,82.85c-0.01,0.14-0.03,0.35-0.06,0.58c-8.71-4.06-18.23-5.39-27.74-3.89
			C72.68,77.83,82.23,78.96,91,82.85z"/>
		<path class="st3" d="M91.28,81.59c0,0,0.29,0.12,0.45,0.19c-0.01,0.09-0.03,0.36-0.05,0.62c-0.16-0.07-0.33-0.15-0.33-0.15
			c-8.41-3.69-17.51-4.87-26.56-3.49C73.76,77.16,82.83,78.12,91.28,81.59z"/>
		<path class="st3" d="M91.4,80.29l0.57,0.22c0,0,0.34,0.14,0.54,0.22c-0.01,0.15-0.03,0.5-0.04,0.62c-0.2-0.09-0.43-0.18-0.43-0.18
			l-0.59-0.24c-8.38-3.38-17.34-4.31-26.21-2.77C74.05,76.4,82.99,77.12,91.4,80.29z"/>
		<path class="st3" d="M91.51,79.01l0.57,0.2l0.67,0.25c0,0,0.34,0.13,0.54,0.21c-0.01,0.15-0.02,0.38-0.03,0.62
			c-0.2-0.08-0.42-0.17-0.42-0.17l-0.68-0.27l-0.58-0.22c-5.11-1.89-10.45-2.89-15.88-2.97c-3.35-0.05-6.7,0.25-10.01,0.9
			c3.26-0.72,6.57-1.1,9.89-1.13C81,76.36,86.36,77.23,91.51,79.01z"/>
		<path class="st3" d="M91.6,77.66c0,0,0.56,0.18,0.56,0.18l0.66,0.22l0.67,0.23c0,0,0.34,0.12,0.54,0.19
			c0,0.13-0.01,0.45-0.02,0.72c-0.2-0.08-0.42-0.16-0.42-0.16l-0.68-0.26l-0.68-0.24l-0.57-0.2c-5.22-1.76-10.65-2.6-16.14-2.51
			c-2.26,0.04-4.52,0.25-6.76,0.61c2.2-0.42,4.42-0.69,6.66-0.8C80.89,75.37,86.34,76.05,91.6,77.66z"/>
		<g>
			<path class="st3" d="M77.3,36.09c2.34,0.06,4.67,0.34,6.96,0.84c1.15,0.25,2.28,0.55,3.41,0.91c1.13,0.36,2.24,0.76,3.34,1.23
				c0,0.01,0,0.15,0,0.39c-1.1-0.46-2.22-0.87-3.34-1.23c-1.13-0.36-2.26-0.66-3.41-0.91c-2.29-0.5-4.62-0.78-6.96-0.84
				c-2.36-0.06-4.71,0.1-7.02,0.49c-1.16,0.19-2.31,0.44-3.44,0.74c-1.14,0.3-2.27,0.66-3.39,1.07c0-0.24,0-0.37,0-0.39
				c1.12-0.41,2.25-0.77,3.39-1.07c1.14-0.3,2.29-0.55,3.44-0.74C72.6,36.19,74.94,36.03,77.3,36.09z"/>
			<path class="st3" d="M84.08,40.08c0.98,0.2,1.96,0.43,2.93,0.71c0.06,0.02,0.15,0.05,0.21,0.06c0.06,0.02,0.18,0.05,0.24,0.07
				c0.07,0.02,0.18,0.06,0.25,0.08c0.07,0.02,0.18,0.06,0.25,0.08c0.48,0.15,0.97,0.32,1.46,0.5c0.53,0.21,1.06,0.43,1.59,0.65
				c0,0.02,0,0.14,0,0.36c-0.09-0.04-0.19-0.08-0.27-0.11c-0.16-0.07-0.37-0.15-0.54-0.21c-0.16-0.06-0.37-0.14-0.53-0.2
				c-0.16-0.06-0.37-0.13-0.52-0.19c-0.13-0.05-0.31-0.11-0.44-0.15c-0.35-0.12-0.69-0.23-1.04-0.34c-1.13-0.35-2.26-0.65-3.41-0.89
				c-0.64-0.14-1.28-0.25-1.92-0.36c-1.66-0.26-3.34-0.41-5.03-0.45c-0.51-0.01-1.01-0.01-1.52,0c-1.84,0.03-3.68,0.21-5.49,0.52
				c-0.33,0.05-0.65,0.11-0.97,0.18c-0.83,0.16-1.65,0.35-2.46,0.57c-0.24,0.06-0.48,0.13-0.72,0.2c-0.89,0.26-1.78,0.55-2.66,0.88
				c-0.01-0.21-0.02-0.33-0.03-0.34c0.03-0.01,0.06-0.02,0.09-0.03c0.11-0.04,0.22-0.1,0.33-0.16c0.96-0.35,1.93-0.65,2.9-0.91
				c0.08-0.02,0.16-0.04,0.24-0.06c1.06-0.28,2.12-0.51,3.19-0.7c2.29-0.39,4.61-0.57,6.95-0.53C79.5,39.35,81.8,39.62,84.08,40.08z
				"/>
			<path class="st3" d="M83.9,43.23c1.1,0.21,2.2,0.46,3.29,0.77c0.05,0.01,0.18,0.05,0.23,0.07c0.06,0.02,0.21,0.07,0.27,0.08
				c0.06,0.02,0.22,0.07,0.28,0.09c0.06,0.02,0.22,0.07,0.28,0.09c0.43,0.14,0.89,0.29,1.34,0.46c0.48,0.2,0.95,0.41,1.42,0.62
				c0,0.02,0,0.13,0,0.33c-0.1-0.04-0.2-0.08-0.27-0.11c-0.14-0.06-0.39-0.15-0.53-0.21c-0.14-0.06-0.39-0.14-0.53-0.2
				c-0.14-0.05-0.38-0.14-0.52-0.19c-0.12-0.04-0.32-0.11-0.44-0.15c-0.35-0.12-0.69-0.23-1.04-0.34c-1.13-0.34-2.26-0.63-3.4-0.87
				c-0.64-0.13-1.28-0.25-1.92-0.35c-1.66-0.25-3.34-0.4-5.02-0.43c-0.5-0.01-1.01-0.01-1.51,0c-1.84,0.04-3.67,0.22-5.48,0.54
				c-0.32,0.06-0.65,0.12-0.97,0.18c-0.82,0.17-1.64,0.36-2.46,0.58c-0.24,0.06-0.48,0.13-0.72,0.2c-0.89,0.26-1.78,0.56-2.65,0.89
				C63.51,45.1,63.49,45,63.46,45c0.02-0.01,0.04-0.02,0.07-0.02c0.1-0.04,0.2-0.1,0.3-0.18c0.96-0.35,1.92-0.66,2.89-0.93
				c0.08-0.02,0.16-0.04,0.24-0.07c1.05-0.28,2.12-0.52,3.19-0.71c2.27-0.4,4.57-0.59,6.89-0.57C79.34,42.54,81.63,42.8,83.9,43.23z
				"/>
			<path class="st3" d="M83.71,46.38c1.22,0.22,2.45,0.48,3.65,0.83c0.04,0.01,0.21,0.06,0.26,0.08c0.05,0.02,0.25,0.08,0.3,0.09
				c0.05,0.02,0.25,0.08,0.31,0.1c0.05,0.02,0.26,0.09,0.31,0.1c0.38,0.12,0.8,0.26,1.21,0.41c0.42,0.2,0.84,0.39,1.25,0.58
				c0,0.02,0,0.12,0,0.3c-0.1-0.04-0.21-0.08-0.27-0.11c-0.13-0.05-0.41-0.16-0.53-0.21c-0.13-0.05-0.4-0.15-0.53-0.2
				c-0.12-0.05-0.4-0.14-0.52-0.19c-0.1-0.04-0.34-0.11-0.44-0.15c-0.35-0.11-0.69-0.23-1.04-0.33c-1.12-0.34-2.26-0.62-3.4-0.86
				c-0.64-0.13-1.28-0.24-1.92-0.34c-1.66-0.25-3.33-0.38-5.01-0.4c-0.5-0.01-1.01,0-1.51,0.01c-1.84,0.05-3.66,0.24-5.46,0.56
				c-0.32,0.06-0.65,0.12-0.97,0.19c-0.82,0.17-1.64,0.36-2.45,0.59c-0.24,0.07-0.48,0.13-0.71,0.2c-0.89,0.26-1.77,0.56-2.65,0.89
				c-0.03-0.16-0.07-0.24-0.1-0.24c0.02-0.01,0.03-0.01,0.05-0.02c0.09-0.04,0.18-0.11,0.26-0.21c0.95-0.35,1.91-0.67,2.88-0.94
				c0.08-0.02,0.16-0.05,0.24-0.07c1.05-0.29,2.11-0.53,3.18-0.73c2.25-0.41,4.53-0.62,6.82-0.61
				C79.19,45.74,81.46,45.98,83.71,46.38z"/>
			<path class="st3" d="M83.53,49.53c1.35,0.23,2.69,0.51,4.01,0.9c0.04,0.01,0.24,0.07,0.28,0.08c0.04,0.01,0.29,0.09,0.33,0.1
				c0.05,0.01,0.29,0.09,0.34,0.11c0.05,0.01,0.29,0.1,0.34,0.11c0.33,0.1,0.71,0.23,1.09,0.37c0.36,0.19,0.73,0.37,1.09,0.55
				c0,0.02,0,0.11,0,0.27c-0.11-0.04-0.21-0.08-0.27-0.11c-0.11-0.04-0.42-0.16-0.53-0.2c-0.11-0.04-0.42-0.15-0.53-0.19
				c-0.11-0.04-0.42-0.14-0.52-0.18c-0.09-0.03-0.35-0.12-0.44-0.15c-0.35-0.11-0.69-0.22-1.04-0.32c-1.12-0.33-2.26-0.61-3.4-0.84
				c-0.64-0.13-1.28-0.24-1.92-0.33c-1.66-0.24-3.33-0.37-5-0.38c-0.5,0-1.01,0-1.51,0.02c-1.83,0.06-3.65,0.25-5.45,0.58
				c-0.32,0.06-0.65,0.12-0.97,0.19c-0.82,0.17-1.64,0.37-2.45,0.59c-0.24,0.07-0.47,0.13-0.71,0.21c-0.89,0.27-1.77,0.57-2.64,0.9
				c-0.04-0.13-0.09-0.2-0.13-0.19c0.01,0,0.02-0.01,0.03-0.01c0.08-0.03,0.15-0.11,0.23-0.23c0.95-0.36,1.91-0.68,2.87-0.95
				c0.08-0.02,0.16-0.05,0.24-0.07c1.05-0.3,2.1-0.54,3.17-0.75c2.23-0.42,4.48-0.64,6.76-0.65C79.04,48.93,81.29,49.16,83.53,49.53
				z"/>
			<path class="st3" d="M83.35,52.69c1.47,0.23,2.93,0.53,4.37,0.96c0.03,0.01,0.27,0.08,0.31,0.09c0.04,0.01,0.32,0.1,0.36,0.11
				c0.04,0.01,0.33,0.11,0.37,0.12c0.04,0.01,0.33,0.11,0.37,0.12c0.28,0.09,0.62,0.21,0.96,0.33c0.31,0.18,0.61,0.35,0.92,0.51
				c0,0.02,0,0.1,0,0.23c-0.11-0.04-0.22-0.09-0.27-0.11c-0.09-0.04-0.44-0.16-0.53-0.2c-0.09-0.04-0.44-0.16-0.53-0.19
				c-0.09-0.03-0.43-0.15-0.52-0.18c-0.08-0.03-0.36-0.12-0.44-0.14c-0.35-0.11-0.69-0.22-1.04-0.32c-1.12-0.33-2.26-0.6-3.4-0.82
				c-0.64-0.12-1.28-0.23-1.92-0.32c-1.65-0.23-3.32-0.35-5-0.36c-0.5,0-1,0.01-1.51,0.02c-1.83,0.06-3.65,0.26-5.44,0.6
				c-0.32,0.06-0.64,0.12-0.97,0.19c-0.82,0.17-1.63,0.37-2.44,0.6c-0.24,0.07-0.47,0.14-0.71,0.21c-0.88,0.27-1.76,0.57-2.63,0.9
				c-0.06-0.1-0.11-0.15-0.17-0.14c0,0,0.01,0,0.01,0c0.06-0.03,0.13-0.12,0.19-0.25c0.95-0.36,1.9-0.68,2.86-0.97
				c0.08-0.02,0.16-0.05,0.24-0.07c1.04-0.3,2.1-0.56,3.16-0.76c2.2-0.43,4.44-0.66,6.69-0.69C78.88,52.13,81.13,52.33,83.35,52.69z
				"/>
			<path class="st3" d="M83.17,55.84c1.59,0.24,3.17,0.56,4.72,1.02c0.03,0.01,0.31,0.09,0.33,0.1c0.03,0.01,0.36,0.11,0.39,0.12
				c0.03,0.01,0.36,0.12,0.4,0.13c0.03,0.01,0.37,0.12,0.4,0.13c0.23,0.07,0.53,0.18,0.83,0.29c0.25,0.18,0.5,0.34,0.75,0.48
				c0,0.02,0,0.1,0,0.2c-0.11-0.04-0.23-0.09-0.27-0.1c-0.08-0.03-0.46-0.17-0.53-0.2c-0.08-0.03-0.45-0.16-0.53-0.19
				c-0.07-0.03-0.45-0.15-0.52-0.18c-0.06-0.02-0.38-0.12-0.44-0.14c-0.35-0.11-0.69-0.22-1.04-0.31c-1.12-0.32-2.26-0.59-3.4-0.81
				c-0.64-0.12-1.27-0.22-1.91-0.31c-1.65-0.22-3.32-0.34-4.99-0.34c-0.5,0-1,0.01-1.5,0.03c-1.82,0.07-3.64,0.28-5.43,0.62
				c-0.32,0.06-0.64,0.12-0.96,0.19c-0.82,0.18-1.63,0.38-2.43,0.61c-0.24,0.07-0.47,0.14-0.71,0.21c-0.88,0.27-1.76,0.57-2.63,0.91
				c-0.07-0.08-0.13-0.11-0.2-0.09c0,0-0.01,0-0.01,0.01c0.05-0.03,0.11-0.13,0.16-0.28c0.94-0.37,1.9-0.69,2.86-0.98
				c0.08-0.02,0.16-0.05,0.24-0.07c1.04-0.31,2.09-0.57,3.15-0.78c2.18-0.44,4.4-0.69,6.63-0.73
				C78.74,55.33,80.96,55.51,83.17,55.84z"/>
			<path class="st3" d="M82.99,58.95c1.71,0.24,3.41,0.59,5.08,1.08c0.02,0.01,0.33,0.1,0.36,0.11c0.02,0.01,0.4,0.12,0.42,0.13
				c0.02,0.01,0.4,0.13,0.42,0.14c0.02,0.01,0.4,0.14,0.43,0.15c0.18,0.06,0.44,0.15,0.71,0.25c0.2,0.17,0.39,0.32,0.58,0.44
				c0,0.03,0,0.09,0,0.17c-0.12-0.04-0.24-0.09-0.27-0.1c-0.06-0.02-0.47-0.17-0.53-0.19c-0.06-0.02-0.47-0.16-0.53-0.18
				c-0.06-0.02-0.47-0.15-0.52-0.17c-0.05-0.02-0.39-0.12-0.44-0.14c-0.35-0.11-0.69-0.21-1.04-0.31c-1.12-0.32-2.26-0.58-3.4-0.79
				c-0.64-0.12-1.27-0.22-1.91-0.3c-1.65-0.22-3.31-0.32-4.98-0.31c-0.5,0-1,0.01-1.5,0.04c-1.82,0.08-3.63,0.29-5.42,0.64
				c-0.32,0.06-0.64,0.13-0.96,0.2c-0.81,0.18-1.62,0.38-2.43,0.62c-0.24,0.07-0.47,0.14-0.71,0.21c-0.88,0.27-1.75,0.58-2.62,0.92
				c-0.08-0.05-0.16-0.06-0.23-0.03c-0.01,0-0.02,0.01-0.03,0.01c0.04-0.03,0.08-0.13,0.12-0.3c0.94-0.37,1.89-0.7,2.85-1
				c0.08-0.02,0.16-0.05,0.24-0.07c1.04-0.31,2.08-0.58,3.14-0.8c2.16-0.45,4.35-0.71,6.56-0.77C78.59,58.48,80.8,58.64,82.99,58.95
				z"/>
			<path class="st3" d="M82.82,62.03c1.83,0.24,3.65,0.61,5.44,1.14c0.01,0,0.37,0.11,0.38,0.11c0.02,0,0.43,0.14,0.45,0.14
				c0.02,0.01,0.44,0.14,0.45,0.15c0.02,0,0.44,0.15,0.46,0.16c0.13,0.04,0.36,0.12,0.58,0.2c0.14,0.17,0.28,0.3,0.42,0.41
				c0,0.03,0,0.08,0,0.14c-0.12-0.05-0.25-0.09-0.27-0.1c-0.04-0.02-0.49-0.18-0.53-0.19c-0.04-0.02-0.49-0.17-0.53-0.18
				c-0.04-0.02-0.48-0.16-0.52-0.17c-0.04-0.01-0.41-0.13-0.44-0.14c-0.35-0.11-0.69-0.21-1.04-0.3c-1.12-0.31-2.26-0.57-3.4-0.77
				c-0.63-0.11-1.27-0.21-1.91-0.29c-1.65-0.21-3.31-0.31-4.98-0.29c-0.5,0-1,0.02-1.5,0.04c-1.82,0.09-3.62,0.31-5.41,0.66
				c-0.32,0.06-0.64,0.13-0.96,0.2c-0.81,0.18-1.62,0.39-2.42,0.62c-0.23,0.07-0.47,0.14-0.7,0.21c-0.88,0.27-1.75,0.58-2.61,0.92
				c-0.09-0.02-0.18-0.02-0.27,0.02c-0.02,0.01-0.03,0.01-0.05,0.02c0.03-0.02,0.06-0.14,0.09-0.33c0.94-0.37,1.88-0.71,2.84-1.01
				c0.08-0.02,0.16-0.05,0.24-0.07c1.03-0.32,2.08-0.59,3.13-0.81c2.14-0.46,4.31-0.73,6.5-0.81
				C78.45,61.61,80.65,61.74,82.82,62.03z"/>
			<path class="st3" d="M82.65,65.11c1.95,0.25,3.89,0.64,5.8,1.2c0.01,0,0.4,0.12,0.4,0.12c0.01,0,0.47,0.15,0.48,0.15
				c0.01,0,0.47,0.16,0.48,0.16c0.01,0,0.48,0.16,0.49,0.17c0.08,0.02,0.27,0.09,0.46,0.16c0.08,0.16,0.17,0.28,0.25,0.38
				c0,0.03,0,0.07,0,0.11c-0.13-0.05-0.26-0.09-0.27-0.1c-0.03-0.01-0.51-0.18-0.53-0.19c-0.03-0.01-0.5-0.17-0.53-0.18
				c-0.02-0.01-0.5-0.16-0.52-0.17c-0.02-0.01-0.42-0.13-0.44-0.14c-0.35-0.1-0.69-0.2-1.04-0.3c-1.12-0.3-2.25-0.56-3.39-0.76
				c-0.63-0.11-1.27-0.2-1.91-0.28c-1.65-0.2-3.31-0.29-4.97-0.27c-0.5,0.01-1,0.02-1.5,0.05c-1.81,0.09-3.61,0.32-5.39,0.68
				c-0.32,0.06-0.64,0.13-0.96,0.2c-0.81,0.18-1.61,0.39-2.41,0.63c-0.23,0.07-0.47,0.14-0.7,0.21c-0.88,0.28-1.75,0.59-2.61,0.93
				c-0.1,0.01-0.2,0.03-0.3,0.07c-0.02,0.01-0.05,0.02-0.07,0.03c0.02-0.02,0.04-0.14,0.05-0.35c0.93-0.38,1.88-0.72,2.83-1.02
				c0.08-0.02,0.16-0.05,0.23-0.07c1.03-0.32,2.07-0.6,3.12-0.83c2.12-0.47,4.27-0.75,6.43-0.85
				C78.31,64.73,80.49,64.83,82.65,65.11z"/>
			<path class="st3" d="M82.47,68.18c2.08,0.24,4.13,0.66,6.16,1.26c0,0,0.43,0.13,0.43,0.13c0,0,0.51,0.16,0.51,0.16
				c0,0,0.51,0.17,0.51,0.17c0,0,0.51,0.18,0.52,0.18c0.03,0.01,0.18,0.06,0.33,0.12c0.03,0.15,0.06,0.27,0.08,0.34
				c0,0.03,0,0.06,0,0.08c-0.13-0.05-0.26-0.1-0.27-0.1c-0.01,0-0.52-0.18-0.53-0.19c-0.01,0-0.52-0.17-0.53-0.18
				c-0.01,0-0.52-0.16-0.52-0.17c-0.01,0-0.43-0.13-0.44-0.13c-0.35-0.1-0.69-0.2-1.04-0.29c-1.12-0.3-2.25-0.55-3.39-0.74
				c-0.63-0.11-1.27-0.2-1.91-0.27c-1.64-0.19-3.3-0.28-4.96-0.25c-0.5,0.01-1,0.03-1.49,0.05c-1.81,0.1-3.61,0.33-5.38,0.69
				c-0.32,0.07-0.64,0.13-0.96,0.21c-0.81,0.19-1.61,0.4-2.41,0.64c-0.23,0.07-0.47,0.14-0.7,0.22c-0.87,0.28-1.74,0.59-2.6,0.93
				c-0.11,0.03-0.22,0.07-0.33,0.12c-0.03,0.01-0.06,0.02-0.09,0.04c0.01-0.02,0.01-0.15,0.02-0.38c0.93-0.38,1.87-0.73,2.82-1.04
				c0.08-0.03,0.16-0.05,0.23-0.08c1.03-0.33,2.06-0.61,3.11-0.85c2.1-0.48,4.22-0.78,6.36-0.89
				C78.17,67.85,80.33,67.92,82.47,68.18z"/>
		</g>
		<path class="st3" d="M40.12,32.23c-6,0.15-11.9,1.43-17.55,3.8c0,0.27,0,41.3,0,41.87c0.17-0.06,0.34-0.13,0.34-0.13l0.68-0.24
			l0.68-0.22l0.67-0.21l0.57-0.17c5.33-1.57,10.84-2.2,16.37-1.88c5.46,0.32,10.83,1.57,15.97,3.7c0-0.39,0-43.29,0-43.57
			C52.13,33.07,46.17,32.08,40.12,32.23z M57.55,78.31c-5.05-2.04-10.32-3.25-15.65-3.56c-5.56-0.33-11.11,0.31-16.47,1.89
			l-0.57,0.17l-0.67,0.21l-0.68,0.23c0,0-0.45,0.16-0.62,0.22c0-0.84,0-40.83,0-41.23c5.56-2.3,11.36-3.55,17.26-3.7
			c5.93-0.15,11.79,0.81,17.42,2.86C57.55,35.82,57.55,77.44,57.55,78.31z"/>
		<path class="st3" d="M77.1,32.23c-6.04-0.16-12.01,0.84-17.73,2.94c0,0.28,0,43.18,0,43.57c5.14-2.14,10.52-3.38,15.97-3.7
			c5.53-0.32,11.04,0.31,16.37,1.88l0.57,0.17l0.67,0.21l0.68,0.22l0.68,0.24c0,0,0.17,0.06,0.34,0.13c0-0.57,0-41.6,0-41.87
			C89.01,33.67,83.1,32.39,77.1,32.23z M94.35,77.47c-0.16-0.06-0.62-0.22-0.62-0.22l-0.68-0.22l-0.67-0.21l-0.57-0.17
			c-5.37-1.58-10.91-2.22-16.47-1.89c-5.34,0.31-10.6,1.51-15.65,3.56c0-0.87,0-42.49,0-42.91c5.63-2.05,11.49-3.01,17.42-2.86
			c5.89,0.15,11.7,1.4,17.25,3.7C94.35,36.64,94.35,76.62,94.35,77.47z"/>
		<path class="st3" d="M58.61,35.21c-0.17,0-0.3,0.14-0.3,0.3v43.04c0,0.17,0.14,0.3,0.3,0.3c0.17,0,0.3-0.14,0.3-0.3V35.52
			C58.92,35.35,58.78,35.21,58.61,35.21z"/>
	</g>
</g>
<rect x="118.24" y="39.62" class="st4" width="333.17" height="75.55"/>
<text transform="matrix(1 0 0 1 118.243 97.7919)" class="st5 st6 st7 st8">E GJ Press</text>
<g>
	<path class="st9" d="M120.38,90.51h0.49c0.52,0,0.98-0.18,1.36-0.54c0.39-0.36,0.73-0.79,1.02-1.32c0.29-0.52,0.52-1.07,0.68-1.66
		c0.16-0.58,0.24-1.14,0.24-1.66V33.19c0-0.45-0.08-0.98-0.24-1.56c-0.16-0.58-0.39-1.14-0.68-1.66c-0.29-0.52-0.63-0.96-1.02-1.32
		c-0.39-0.36-0.85-0.54-1.36-0.54h-0.49v-0.98h37.53v9.07h-0.97c-0.13-1.49-0.72-2.81-1.75-3.95c-1.04-1.14-2.67-1.71-4.87-1.71
		h-19.6v24.67h16.18c1.49,0,2.75-0.45,3.75-1.36c1.01-0.91,1.51-1.98,1.51-3.22h0.98v12.19h-0.98c0-1.17-0.49-2.18-1.46-3.02
		c-0.98-0.84-2.24-1.27-3.8-1.27h-16.18v29.54h21.35c1.23,0,2.31-0.29,3.22-0.88c0.91-0.58,1.67-1.28,2.29-2.1
		c0.62-0.81,1.07-1.69,1.36-2.63c0.29-0.94,0.44-1.74,0.44-2.39h0.98v11.41h-39.97V90.51z"/>
	<path class="st9" d="M221.67,57.56h13.94v0.97h-0.49c-0.52,0-0.98,0.18-1.36,0.54c-0.39,0.36-0.72,0.8-0.98,1.32
		c-0.26,0.52-0.47,1.07-0.63,1.66c-0.16,0.58-0.24,1.11-0.24,1.56v26.13c-1.17,0.46-2.5,0.85-4,1.17c-1.5,0.33-3.06,0.6-4.68,0.83
		c-1.63,0.23-3.28,0.41-4.97,0.54c-1.69,0.13-3.25,0.2-4.68,0.2c-5.85,0-10.95-0.98-15.31-2.92c-4.35-1.95-7.96-4.5-10.82-7.65
		c-2.86-3.15-4.99-6.71-6.39-10.68c-1.4-3.96-2.1-7.96-2.1-11.99c0-4.03,0.7-8.03,2.1-11.99c1.4-3.96,3.54-7.51,6.43-10.63
		c2.89-3.12,6.53-5.64,10.92-7.56c4.39-1.92,9.6-2.88,15.65-2.88c2.27,0,4.39,0.2,6.34,0.58c1.95,0.39,3.67,0.75,5.17,1.07
		c0.84,0.19,1.58,0.37,2.19,0.54c0.62,0.16,1.15,0.24,1.61,0.24h0.88v10.33h-0.98c-0.39-2.01-1.15-3.64-2.29-4.87
		c-1.14-1.23-2.45-2.18-3.95-2.83c-1.5-0.65-3.07-1.09-4.73-1.32c-1.66-0.23-3.2-0.34-4.63-0.34c-4.87,0-9.1,0.86-12.67,2.58
		c-3.58,1.72-6.5,3.95-8.77,6.68c-2.28,2.73-3.97,5.8-5.07,9.21c-1.11,3.41-1.66,6.81-1.66,10.19c0,3.77,0.71,7.49,2.14,11.16
		c1.43,3.67,3.44,6.96,6.04,9.85c2.6,2.89,5.73,5.23,9.41,7.02c3.67,1.79,7.75,2.68,12.23,2.68c1.23,0,2.76-0.15,4.58-0.44
		c1.82-0.29,3.64-0.96,5.46-2V63.6c0-0.45-0.07-0.98-0.19-1.56c-0.13-0.58-0.34-1.14-0.63-1.66c-0.29-0.52-0.63-0.96-1.02-1.32
		c-0.39-0.36-0.85-0.54-1.37-0.54h-0.49V57.56z"/>
	<path class="st9" d="M241.85,27.14h13.94v0.98h-0.49c-0.52,0-0.97,0.18-1.36,0.54c-0.39,0.36-0.73,0.81-1.02,1.36
		c-0.29,0.55-0.52,1.12-0.68,1.71c-0.16,0.58-0.24,1.11-0.24,1.56v54.3c0,2.08-0.26,4-0.77,5.75c-0.52,1.75-1.21,3.4-2.08,4.92
		c-0.87,1.53-1.84,2.92-2.9,4.19c-1.06,1.27-2.18,2.42-3.34,3.46c-2.65,2.4-5.69,4.42-9.14,6.04l-0.49-0.78
		c2.27-1.63,4.29-3.54,6.04-5.75c1.49-1.89,2.89-4.19,4.19-6.92c1.3-2.73,1.95-5.88,1.95-9.46V33.29c0-0.45-0.07-0.98-0.2-1.56
		c-0.13-0.58-0.34-1.15-0.63-1.71c-0.29-0.55-0.63-1.01-1.02-1.36c-0.39-0.36-0.81-0.54-1.27-0.54h-0.49V27.14z"/>
	<path class="st9" d="M294.4,27.14h13.84c7.21,0,12.69,1.38,16.43,4.14c3.74,2.76,5.61,6.68,5.61,11.75c0,2.73-0.65,5.17-1.96,7.31
		c-1.31,2.15-3.02,3.95-5.14,5.41c-2.12,1.46-4.5,2.58-7.14,3.36c-2.64,0.78-5.27,1.17-7.88,1.17h-3.72v24.86
		c0,0.52,0.06,1.09,0.19,1.71c0.13,0.62,0.34,1.19,0.63,1.71c0.29,0.52,0.62,0.98,0.98,1.37c0.36,0.39,0.79,0.58,1.32,0.58h0.49
		v0.98H294.4v-0.98h0.49c0.45,0,0.88-0.19,1.27-0.58c0.39-0.39,0.71-0.84,0.98-1.37c0.26-0.52,0.45-1.09,0.58-1.71
		c0.13-0.62,0.19-1.19,0.19-1.71V33.19c0-0.91-0.26-1.95-0.78-3.12c-0.52-1.17-1.27-1.82-2.24-1.95h-0.49V27.14z M304.44,30.56
		v26.32h2.94c2.61,0,4.95-0.36,7.01-1.07c2.06-0.71,3.77-1.66,5.14-2.83c1.37-1.17,2.42-2.5,3.13-4c0.72-1.49,1.08-3.02,1.08-4.58
		c0-1.88-0.31-3.66-0.93-5.31c-0.62-1.66-1.63-3.12-3.04-4.39c-1.4-1.27-3.25-2.27-5.54-3.02c-2.29-0.75-5.09-1.12-8.42-1.12H304.44
		z"/>
	<path class="st9" d="M353.77,90.51h0.49v0.98h-13.75v-0.98h0.49c0.45,0,0.88-0.19,1.27-0.58c0.39-0.39,0.73-0.84,1.02-1.37
		c0.29-0.52,0.5-1.09,0.63-1.71c0.13-0.62,0.2-1.19,0.2-1.71V33.19c0-0.45-0.07-0.98-0.2-1.56c-0.13-0.58-0.34-1.14-0.63-1.66
		c-0.29-0.52-0.63-0.96-1.02-1.32c-0.39-0.36-0.81-0.54-1.27-0.54h-0.49v-0.98h16.96c6.5,0,11.52,1.27,15.06,3.8
		c3.54,2.53,5.31,6.27,5.31,11.21c0,2.47-0.41,4.63-1.22,6.48c-0.81,1.85-1.9,3.45-3.27,4.78c-1.36,1.33-2.97,2.41-4.83,3.22
		c-1.85,0.81-3.82,1.41-5.9,1.8l7.02,10.72c1.69,2.6,3.41,5.15,5.17,7.65c1.75,2.5,3.48,5.09,5.17,7.75
		c0.45,0.65,0.96,1.33,1.51,2.05c0.55,0.72,1.14,1.36,1.75,1.95c0.62,0.58,1.27,1.06,1.95,1.41c0.68,0.36,1.38,0.54,2.1,0.54v0.98
		h-4.19c-2.6,0-4.73-0.63-6.39-1.9c-1.66-1.27-3.04-2.75-4.14-4.44c-2.92-4.29-5.83-8.64-8.73-13.06
		c-2.89-4.42-5.77-8.77-8.63-13.06c-0.72-0.06-1.48-0.15-2.29-0.24c-0.81-0.1-1.58-0.21-2.29-0.34v26.71c0,0.52,0.06,1.09,0.2,1.71
		c0.13,0.62,0.34,1.19,0.63,1.71c0.29,0.52,0.62,0.98,0.97,1.37C352.81,90.32,353.24,90.51,353.77,90.51z M350.65,30.46v24.76h0.49
		c0.52,0.07,1.35,0.11,2.49,0.15c1.14,0.03,2.55,0.05,4.24,0.05c1.36,0,2.81-0.21,4.34-0.63c1.53-0.42,2.96-1.14,4.29-2.15
		c1.33-1.01,2.44-2.32,3.32-3.95c0.88-1.62,1.32-3.67,1.32-6.14c0-2.47-0.47-4.48-1.41-6.04c-0.94-1.56-2.24-2.79-3.9-3.7
		c-1.66-0.91-3.66-1.53-6-1.85c-2.34-0.32-4.91-0.49-7.7-0.49H350.65z"/>
	<path class="st9" d="M395.1,90.51h0.49c0.52,0,0.98-0.18,1.37-0.54c0.39-0.36,0.73-0.79,1.02-1.32c0.29-0.52,0.52-1.07,0.68-1.66
		c0.16-0.58,0.24-1.14,0.24-1.66V33.19c0-0.45-0.08-0.98-0.24-1.56c-0.16-0.58-0.39-1.14-0.68-1.66c-0.29-0.52-0.63-0.96-1.02-1.32
		c-0.39-0.36-0.85-0.54-1.37-0.54h-0.49v-0.98h37.53v9.07h-0.97c-0.13-1.49-0.72-2.81-1.75-3.95c-1.04-1.14-2.67-1.71-4.88-1.71
		h-19.59v24.66h16.18c1.5,0,2.75-0.45,3.75-1.36c1.01-0.91,1.51-1.98,1.51-3.22h0.97v12.19h-0.97c0-1.17-0.49-2.18-1.46-3.02
		c-0.98-0.84-2.24-1.27-3.8-1.27h-16.18v29.54h21.35c1.23,0,2.31-0.29,3.22-0.88c0.91-0.58,1.67-1.28,2.29-2.1
		c0.62-0.81,1.07-1.69,1.36-2.63c0.29-0.94,0.44-1.74,0.44-2.39h0.98v11.41H395.1V90.51z"/>
	<path class="st9" d="M483.82,74.23c0,3.25-0.65,6.03-1.96,8.34c-1.3,2.31-2.98,4.18-5.03,5.61c-2.05,1.43-4.37,2.47-6.94,3.12
		s-5.13,0.97-7.67,0.97c-2.61,0-4.86-0.26-6.75-0.78c-1.89-0.52-3.62-1.01-5.18-1.46c-1.04-0.32-1.98-0.6-2.83-0.83
		c-0.85-0.23-1.69-0.34-2.54-0.34V77.74h0.98c0,2.47,0.63,4.44,1.9,5.9s2.75,2.58,4.44,3.36s3.39,1.28,5.09,1.51
		c1.7,0.23,2.94,0.34,3.72,0.34c2.8,0,5.22-0.41,7.24-1.22c2.02-0.81,3.68-1.88,4.99-3.22c1.3-1.33,2.27-2.81,2.89-4.44
		c0.62-1.62,0.93-3.28,0.93-4.97c0-2.14-0.46-3.95-1.36-5.41c-0.91-1.46-2.1-2.74-3.56-3.85c-1.46-1.1-3.14-2.05-5.02-2.83
		c-1.89-0.78-3.8-1.56-5.75-2.34c-2.21-0.84-4.39-1.72-6.53-2.63c-2.15-0.91-4.06-2.03-5.75-3.36c-1.69-1.33-3.06-2.92-4.09-4.78
		c-1.04-1.85-1.56-4.14-1.56-6.87c0-2.86,0.55-5.34,1.66-7.46c1.1-2.11,2.58-3.85,4.44-5.22s3.96-2.39,6.34-3.07
		c2.37-0.68,4.79-1.02,7.26-1.02c1.69,0,3.28,0.11,4.78,0.34c1.49,0.23,2.92,0.5,4.29,0.83c1.1,0.26,2.18,0.47,3.22,0.63
		c1.04,0.16,2.05,0.24,3.02,0.24v10.04h-0.97c-0.13-3.38-1.47-5.67-4.01-6.87c-2.54-1.2-6.07-1.8-10.57-1.8
		c-2.61,0-4.74,0.44-6.41,1.32c-1.66,0.88-2.98,1.95-3.96,3.22c-0.98,1.27-1.65,2.63-2.01,4.09s-0.54,2.75-0.54,3.85
		c0,1.82,0.41,3.38,1.22,4.68c0.82,1.3,1.91,2.44,3.28,3.41s2.95,1.85,4.74,2.63c1.79,0.78,3.67,1.53,5.62,2.24
		c2.21,0.85,4.46,1.75,6.75,2.73c2.28,0.98,4.32,2.18,6.11,3.61c1.79,1.43,3.26,3.19,4.4,5.26
		C483.24,68.71,483.82,71.24,483.82,74.23z"/>
	<path class="st9" d="M530.12,74.23c0,3.25-0.65,6.03-1.96,8.34c-1.3,2.31-2.98,4.18-5.03,5.61c-2.05,1.43-4.37,2.47-6.94,3.12
		s-5.13,0.97-7.67,0.97c-2.61,0-4.86-0.26-6.75-0.78c-1.89-0.52-3.62-1.01-5.18-1.46c-1.04-0.32-1.98-0.6-2.83-0.83
		c-0.85-0.23-1.69-0.34-2.54-0.34V77.74h0.98c0,2.47,0.63,4.44,1.9,5.9s2.75,2.58,4.44,3.36s3.39,1.28,5.09,1.51
		c1.7,0.23,2.94,0.34,3.72,0.34c2.8,0,5.22-0.41,7.24-1.22c2.02-0.81,3.68-1.88,4.99-3.22c1.3-1.33,2.27-2.81,2.89-4.44
		c0.62-1.62,0.93-3.28,0.93-4.97c0-2.14-0.46-3.95-1.36-5.41c-0.91-1.46-2.1-2.74-3.56-3.85c-1.46-1.1-3.14-2.05-5.02-2.83
		c-1.89-0.78-3.8-1.56-5.75-2.34c-2.21-0.84-4.39-1.72-6.53-2.63c-2.15-0.91-4.06-2.03-5.75-3.36c-1.69-1.33-3.06-2.92-4.09-4.78
		c-1.04-1.85-1.56-4.14-1.56-6.87c0-2.86,0.55-5.34,1.66-7.46c1.1-2.11,2.58-3.85,4.44-5.22s3.96-2.39,6.34-3.07
		c2.37-0.68,4.79-1.02,7.26-1.02c1.69,0,3.28,0.11,4.78,0.34c1.49,0.23,2.92,0.5,4.29,0.83c1.1,0.26,2.18,0.47,3.22,0.63
		c1.04,0.16,2.05,0.24,3.02,0.24v10.04h-0.97c-0.13-3.38-1.47-5.67-4.01-6.87c-2.54-1.2-6.07-1.8-10.57-1.8
		c-2.61,0-4.74,0.44-6.41,1.32c-1.66,0.88-2.98,1.95-3.96,3.22c-0.98,1.27-1.65,2.63-2.01,4.09s-0.54,2.75-0.54,3.85
		c0,1.82,0.41,3.38,1.22,4.68c0.82,1.3,1.91,2.44,3.28,3.41s2.95,1.85,4.74,2.63c1.79,0.78,3.67,1.53,5.62,2.24
		c2.21,0.85,4.46,1.75,6.75,2.73c2.28,0.98,4.32,2.18,6.11,3.61c1.79,1.43,3.26,3.19,4.4,5.26
		C529.55,68.71,530.12,71.24,530.12,74.23z"/>
</g>
<rect x="152.6" y="45.93" class="st4" width="41.77" height="59.77"/>
<text transform="matrix(1 0 0 1 152.5966 91.566)" class="st10 st6 st11 st12">&amp;</text>
<g>
	<path class="st10" d="M96.86,42.01c0-0.56-0.77-1-1.72-1H30.84c-0.95,0-1.73,0.45-1.73,1c0,0.56,0.78,1,1.73,1h64.29
		C96.08,43.01,96.86,42.56,96.86,42.01z"/>
	<path class="st10" d="M100.78,37.57c0-0.99-1.37-1.78-3.06-1.78H28.26c-1.69,0-3.06,0.8-3.06,1.78c0,0.99,1.37,1.79,3.06,1.79
		h69.45C99.4,39.36,100.78,38.56,100.78,37.57z"/>
	<path class="st10" d="M114.63,10.45c-3.13-4.33-9.85-6.14-16.02-6.47H27.79c-4.46,0.23-9.2,1.24-12.67,3.42
		c-3.07,1.93-5.15,4.76-5.15,8.78c0,9.97,9.31,14.61,17.69,14.03c8.38-0.58,13.15-4.26,13.74-10.16c0.58-5.9-5.76-8.31-10.48-7.84
		c-4.72,0.47-6.4,5.32-3.14,4.06c8.38-2.9,8.85,6.58,2.1,7.74c-3.17,0.55-5.73-2.2-6.22-5.26c0,0,0-0.01,0-0.03
		c-0.03-0.21-0.06-0.43-0.07-0.65c0,0-0.2-1.58,0.59-3.22c0.88-2,3.03-4.03,8.1-4.06c4.81-0.02,7.59,1.79,9.11,3.91
		c1.07,1.33,1.57,2.9,1.62,4.45c0.05,0.66,0.01,1.22-0.09,1.6c3.39-1.53,11.19-2.6,20.27-2.6c9.08,0,16.88,1.07,20.27,2.6
		c-0.1-0.39-0.14-0.95-0.09-1.6c0.05-1.55,0.55-3.12,1.62-4.45c1.52-2.13,4.3-3.94,9.11-3.91c5.07,0.02,7.22,2.06,8.1,4.06
		c0.79,1.64,0.59,3.22,0.59,3.22c-0.01,0.22-0.04,0.43-0.07,0.65c0,0.01,0,0.02,0,0.03c-0.49,3.06-3.04,5.81-6.22,5.26
		c-6.75-1.16-6.29-10.65,2.1-7.74c3.26,1.26,1.58-3.6-3.14-4.06c-4.72-0.47-11.06,1.94-10.48,7.84c0.58,5.9,5.35,9.58,13.74,10.16
		c8.38,0.58,17.69-4.06,17.69-14.03C116.43,13.91,115.77,12.02,114.63,10.45z"/>
	<path class="st10" d="M96.18,34.33v-0.97c-4.32-0.92-7.19-3.18-9.08-5.53c-1.05-0.9-1.91-1.93-2.55-3.09
		c-0.36-0.65-0.66-1.34-0.89-2.07c-0.39-0.18-1-0.45-1-0.45c-2.65-1.19-9.65-2.4-19.33-2.4s-16.68,1.2-19.33,2.4
		c0,0-0.61,0.28-1,0.45c-0.23,0.73-0.52,1.42-0.89,2.07c-0.77,1.39-1.85,2.6-3.2,3.61c-0.04,0.03-0.08,0.06-0.12,0.09
		c-1.88,2.12-4.62,4.08-8.56,4.92v0.97"/>
	<path class="st10" d="M37.36,59.71h51.68c1.01,0,1.82-0.49,1.82-1.09c0-0.61-0.82-1.1-1.82-1.1H37.36c-1.01,0-1.82,0.49-1.82,1.1
		C35.54,59.22,36.35,59.71,37.36,59.71z"/>
	<path class="st10" d="M35.54,45.2v5.54c0.11-0.03,0.23-0.06,0.36-0.06c0.75,0,1.36,0.62,1.36,1.37v3.89h5.19v-3.89
		c0-0.76,0.73-1.37,1.64-1.37c0.9,0,1.64,0.62,1.64,1.37v3.89h5.18v-3.89c0-0.76,0.86-1.37,1.91-1.37c1.06,0,1.91,0.62,1.91,1.37
		v3.89h5.74v-3.89c0-0.76,0.97-1.37,2.18-1.37c1.21,0,2.19,0.62,2.19,1.37v3.89h5.6v-3.89c0-0.76,0.91-1.37,2.04-1.37
		c1.13,0,2.05,0.62,2.05,1.37v3.89h5.6v-3.89c0-0.76,0.73-1.37,1.64-1.37c0.91,0,1.64,0.62,1.64,1.37v3.89h5.73v-3.89
		c0-0.76,0.62-1.37,1.37-1.37c0.13,0,0.25,0.02,0.36,0.06V45.2"/>
	<path class="st10" d="M89.14,62.45c0-0.54,0.61-0.98,1.36-0.98v-0.26H35.9v0.26c0.75,0,1.37,0.44,1.37,0.98v54.3
		c1.76-0.45,3.49-1,5.18-1.66V62.45c0-0.54,0.73-0.98,1.64-0.98c0.9,0,1.64,0.44,1.64,0.98v51.19c1.74-0.86,3.45-1.86,5.1-3.04
		c0.03-0.02,0.06-0.04,0.08-0.06V62.45c0-0.54,0.86-0.98,1.92-0.98c1.05,0,1.91,0.44,1.91,0.98v45.21c1.87-1.39,3.78-2.78,5.73-4.14
		V62.45c0-0.54,0.98-0.98,2.19-0.98c1.21,0,2.18,0.44,2.18,0.98v38.13c1.83-1.18,3.69-2.33,5.6-3.41V62.45
		c0-0.54,0.92-0.98,2.04-0.98c1.13,0,2.05,0.44,2.05,0.98v32.51c1.83-0.92,3.69-1.78,5.6-2.57V62.45c0-0.54,0.72-0.98,1.64-0.98
		c0.9,0,1.64,0.44,1.64,0.98v28.68c1.87-0.67,3.78-1.25,5.74-1.75V62.45z"/>
</g>
</svg>
